<svg width="224" height="224" viewBox="0 0 224 224" fill="none" xmlns="http://www.w3.org/2000/svg">
<g clip-path="url(#clip0_1_6734)">
<path d="M131.478 206.299C132.276 206.299 132.923 205.653 132.923 204.855C132.923 204.056 132.276 203.41 131.478 203.41C130.68 203.41 130.033 204.056 130.033 204.855C130.033 205.653 130.68 206.299 131.478 206.299Z" fill="#231916"/>
<path d="M126.873 206.299C127.671 206.299 128.318 205.653 128.318 204.855C128.318 204.056 127.671 203.41 126.873 203.41C126.075 203.41 125.428 204.056 125.428 204.855C125.428 205.653 126.075 206.299 126.873 206.299Z" fill="#231916"/>
<path d="M205.43 207.632C206.175 206.153 206.277 204.042 206.254 202.721H217.554C217.532 204.053 217.645 206.153 218.378 207.632C219.496 209.867 222.634 211.481 222.995 211.662L223.989 209.675C223.21 209.28 221.031 207.97 220.365 206.638C219.699 205.306 219.744 202.619 219.823 201.705L219.936 200.497H203.861L203.974 201.705C204.053 202.608 204.121 205.261 203.432 206.638C202.766 207.97 200.588 209.28 199.809 209.675L200.802 211.662C201.152 211.481 204.301 209.867 205.419 207.632H205.43Z" fill="#231916"/>
<path d="M215.962 207.462H207.846V209.686H215.962V207.462Z" fill="#231916"/>
<path d="M216.865 217.667L218.411 219.428C214.765 221.641 209.652 222.555 204.955 220.399L207.732 214.743H222.171V212.519H201.625V214.743H205.26L203.025 219.304C202.72 219.089 202.404 218.875 202.099 218.638L200.711 220.376C203.815 222.86 207.27 223.865 210.588 223.865C213.907 223.865 217.328 222.781 219.913 221.121L221.561 222.995L223.232 221.528L218.536 216.2L216.865 217.667Z" fill="#231916"/>
<path d="M182.605 205.645C182.052 206.954 180.246 208.23 179.602 208.614L180.731 210.533C181.036 210.352 183.711 208.738 184.648 206.525C184.874 206.006 185.021 205.396 185.122 204.775H189.897C189.886 205.487 189.796 206.345 189.525 206.864C189.152 207.586 187.854 208.41 187.132 208.749L188.091 210.758C188.351 210.634 190.654 209.494 191.5 207.891C192.324 206.322 192.11 203.827 192.087 203.545L191.986 202.54H185.325C185.348 201.513 185.292 200.7 185.28 200.531L183.068 200.7C183.102 201.084 183.124 201.773 183.102 202.54H179.105V204.764H182.865C182.797 205.08 182.718 205.385 182.605 205.633V205.645Z" fill="#231916"/>
<path d="M184.987 213.964H180.856C180.878 212.644 180.856 211.571 180.844 211.492L178.621 211.571C178.621 211.571 178.654 212.678 178.621 213.964H177.074V216.188H178.508C178.474 216.561 178.429 216.911 178.372 217.216C178.034 219.022 176.916 220.512 176.916 220.523L178.688 221.866C178.745 221.787 180.122 219.959 180.562 217.633C180.641 217.204 180.709 216.708 180.754 216.188H182.831C182.831 217.238 182.797 218.807 182.572 219.823C182.244 221.279 181.172 222.499 181.161 222.51L181.985 223.255L182.809 224C182.865 223.932 184.276 222.341 184.739 220.309C185.168 218.412 185.033 215.172 185.033 215.037L184.987 213.976V213.964Z" fill="#231916"/>
<path d="M194.119 215.037L194.074 213.976H189.942C189.965 212.655 189.942 211.583 189.931 211.504L187.707 211.583C187.707 211.583 187.741 212.689 187.718 213.976H186.172V216.2H187.605C187.572 216.572 187.526 216.922 187.47 217.227C187.131 219.033 186.014 220.523 186.014 220.534L187.786 221.878C187.842 221.799 189.22 219.97 189.66 217.645C189.739 217.216 189.807 216.719 189.852 216.2H191.929C191.929 217.249 191.895 218.819 191.669 219.835C191.342 221.291 190.269 222.51 190.258 222.521L191.918 224C191.974 223.932 193.385 222.341 193.848 220.309C194.277 218.412 194.141 215.172 194.141 215.037H194.119Z" fill="#231916"/>
<path d="M177.299 207.857V205.633H174.579V201.761H172.355V205.633H169.623V207.857H172.355V223.074H174.579V207.857H177.299Z" fill="#231916"/>
<path d="M144.278 222.284L144.256 220.06C152.745 219.981 159.383 214.924 161.956 210.25L163.909 211.323C161.697 215.353 155.07 222.194 144.278 222.284Z" fill="#231916"/>
<path d="M141.851 202.991L141.277 205.14L148.77 207.141L149.344 204.992L141.851 202.991Z" fill="#231916"/>
<path d="M133.025 211.187V208.964H123.17V201.761H120.946V208.964H111.08V211.187H120.946V223.074H123.17V211.187H133.025Z" fill="#231916"/>
<path d="M110.041 219.281L110.391 221.483C114.861 220.771 116.272 216.279 116.329 216.087L114.207 215.443C114.161 215.579 113.123 218.807 110.041 219.293V219.281Z" fill="#231916"/>
<path d="M130.147 215.342L127.945 215.68C128.645 220.207 133.082 221.641 133.274 221.697L133.94 219.575C133.804 219.53 130.632 218.48 130.147 215.342Z" fill="#231916"/>
<path d="M83.8066 223.221V220.997C93.4471 220.997 97.3756 217.994 97.3756 210.612V204.527H99.5994V210.612C99.5994 221.912 90.5911 223.221 83.8066 223.221Z" fill="#231916"/>
<path d="M81.3235 204.527H79.0996V214.156H81.3235V204.527Z" fill="#231916"/>
<path d="M69.4243 213.535C69.4243 213.535 67.3811 213.806 64.8637 212.96C62.2673 212.079 60.2241 210.442 60.2015 210.431L60.1789 210.465V201.773H57.9551V223.086H60.1789V213.129C61.1385 213.75 62.5383 214.529 64.1525 215.071C65.9474 215.68 67.5278 215.804 68.5551 215.804C69.2663 215.804 69.7065 215.737 69.7517 215.737L69.4243 213.535Z" fill="#231916"/>
<path d="M46.5316 211.063H31.6758V213.287H46.5316V211.063Z" fill="#231916"/>
<path d="M1.59169 221.291L0 219.744C0 219.744 3.04793 216.572 3.97359 212.757C4.94441 208.783 4.61704 201.411 4.61704 201.332L6.8409 201.231C6.85219 201.547 7.17956 208.997 6.12972 213.276C5.0573 217.69 1.73845 221.144 1.59169 221.291Z" fill="#231916"/>
<path d="M23.2776 223.413C23.1308 223.289 19.7894 220.196 18.7057 216.233C17.6558 212.407 17.9832 205.758 17.9945 205.475L20.2183 205.588C20.2183 205.656 19.9023 212.158 20.8505 215.646C21.7649 218.977 24.7564 221.742 24.779 221.776L23.2776 223.424V223.413Z" fill="#231916"/>
<path d="M61.094 33.6175L30.547 0L0 33.6175L30.547 67.2463L61.094 33.6175Z" fill="#F39800"/>
<path d="M224 100.864L193.453 67.2463L111.994 156.9L142.541 190.518L224 100.864Z" fill="#F39800"/>
<path d="M81.4473 190.518V190.532H81.4613L81.4473 190.518Z" fill="#F39800"/>
<path d="M193.453 0L162.906 33.6175L193.453 67.2463L224 100.864V33.6175L193.453 0Z" fill="#E4007F"/>
<path d="M193.453 0H132.359L111.994 22.4079L142.541 56.0367L162.906 33.6175L193.453 0Z" fill="#F39800"/>
<path d="M111.994 22.4079L91.6409 0H30.5469L61.0939 33.6175L81.4472 56.0367H142.541L111.994 22.4079Z" fill="#E4007F"/>
<path d="M142.555 190.532L142.541 190.518V190.532H142.555Z" fill="#E4007F"/>
<path d="M111.994 156.9L30.547 67.2463L0 33.6175V100.864L81.4474 190.518L81.4587 190.529H142.541V190.518L111.994 156.9Z" fill="#E4007F"/>
<path d="M77.7891 86.6063V72.0214H79.2001V86.6063H77.7891ZM87.2376 86.6063V79.7202H80.3854V78.1624H87.2376V72.0439H88.6487V86.6175H87.2376V86.6063Z" fill="#231916"/>
<path d="M92.5547 86.6063V72.0214H100.682V73.5566H93.9658V78.2865H100.05V79.7879H93.9658V85.0823H102.635V86.6063H92.5547Z" fill="#231916"/>
<path d="M116.385 86.6063L115.132 83.1519H110.108V81.6618H114.613L111.508 72.9583L106.665 86.595H105.164L110.3 72.0101H112.727L117.909 86.595H116.385V86.6063Z" fill="#231916"/>
<path d="M130.462 86.6063L124.309 80.3185V78.9074H127.594C129.728 78.9074 130.687 78.3317 130.687 76.6497V76.0062C130.687 74.4146 130.033 73.534 127.989 73.534H122.458V86.6063H121.047V72.0214H127.978C131.184 72.0214 132.11 73.4324 132.11 75.9385V76.7287C132.11 79.4719 130.608 80.3749 127.707 80.3749H126.341L132.347 86.6063H130.473H130.462Z" fill="#231916"/>
<path d="M141.288 73.5679V86.595H139.854V73.5679H134.955V72.0101H146.187V73.5679H141.277H141.288Z" fill="#231916"/>
<path d="M87.2272 105.052L81.0749 98.7641V97.353H84.3599C86.4934 97.353 87.453 96.7773 87.453 95.0953V94.4518C87.453 92.8601 86.7982 91.9796 84.755 91.9796H79.2236V105.052H77.8125V90.4669H84.7437C87.9497 90.4669 88.8753 91.878 88.8753 94.3841V95.1743C88.8753 97.9174 87.374 98.8318 84.4728 98.8318H83.1069L89.1124 105.063H87.2385L87.2272 105.052Z" fill="#231916"/>
<path d="M91.3691 105.052V90.4669H92.7802V105.052H91.3691Z" fill="#231916"/>
<path d="M102.375 105.052H98.8644V103.55H102.33C104.317 103.55 105.051 102.568 105.051 101.225V100.728C105.051 98.9221 104.08 98.1658 101.111 98.1658H99.7901V96.7321H101.314C103.922 96.7321 104.78 95.9419 104.78 94.6437V94.1809C104.78 92.6457 103.854 92.0135 101.935 92.0135H97.0131V100.638H95.6133V90.4669H101.991C104.644 90.4669 106.27 91.3813 106.27 94.068V94.5647C106.27 95.8178 105.784 96.8224 104.531 97.4095C105.773 97.9513 106.529 98.9673 106.529 100.762V101.248C106.529 103.483 105.491 105.063 102.386 105.063L102.375 105.052Z" fill="#231916"/>
<path d="M115.504 105.052H111.993V103.55H115.459C117.446 103.55 118.179 102.568 118.179 101.225V100.728C118.179 98.9221 117.209 98.1658 114.24 98.1658H112.919V96.7321H114.443C117.051 96.7321 117.909 95.9419 117.909 94.6437V94.1809C117.909 92.6457 116.983 92.0135 115.064 92.0135H110.142V100.638H108.742V90.4669H115.12C117.773 90.4669 119.399 91.3813 119.399 94.068V94.5647C119.399 95.8178 118.913 96.8224 117.66 97.4095C118.902 97.9513 119.658 98.9673 119.658 100.762V101.248C119.658 103.483 118.62 105.063 115.515 105.063L115.504 105.052Z" fill="#231916"/>
<path d="M127.639 105.097H126.861C123.135 105.097 121.51 103.268 121.51 99.2269V96.3258C121.51 92.1941 123.214 90.4331 126.861 90.4331H127.639C131.286 90.4331 133.035 92.2957 133.035 96.3258V99.2269C133.035 103.268 131.365 105.097 127.639 105.097ZM131.624 96.3258C131.624 93.1762 130.225 92.0361 127.639 92.0361H126.861C124.275 92.0361 122.898 93.1762 122.898 96.3258V99.2269C122.898 102.399 124.275 103.562 126.861 103.562H127.639C130.225 103.562 131.624 102.399 131.624 99.2269V96.3258Z" fill="#231916"/>
<path d="M143.76 105.052L136.749 92.0248V105.052H135.35V90.4669H137.393L144.471 103.573V91.6748H145.871V105.063H143.76V105.052Z" fill="#231916"/>
</g>
<defs>
<clipPath id="clip0_1_6734">
<rect width="224" height="224" fill="white"/>
</clipPath>
</defs>
</svg>
