<svg width="158" height="39" viewBox="0 0 158 39" fill="none" xmlns="http://www.w3.org/2000/svg">
  <path d="M21.1307 33.1549C21.2589 33.1549 21.3629 33.0509 21.3629 32.9227C21.3629 32.7944 21.2589 32.6904 21.1307 32.6904C21.0024 32.6904 20.8984 32.7944 20.8984 32.9227C20.8984 33.0509 21.0024 33.1549 21.1307 33.1549Z" fill="#231916"/>
  <path d="M20.3904 33.1549C20.5187 33.1549 20.6226 33.0509 20.6226 32.9227C20.6226 32.7944 20.5187 32.6904 20.3904 32.6904C20.2622 32.6904 20.1582 32.7944 20.1582 32.9227C20.1582 33.0509 20.2622 33.1549 20.3904 33.1549Z" fill="#231916"/>
  <path d="M33.0168 33.3693C33.1365 33.1316 33.1528 32.7923 33.1492 32.5801H34.9653C34.9616 32.7941 34.9798 33.1316 35.0977 33.3693C35.2773 33.7285 35.7817 33.9879 35.8397 34.0169L35.9994 33.6976C35.8742 33.6341 35.5241 33.4237 35.417 33.2096C35.31 32.9955 35.3172 32.5637 35.3299 32.4168L35.3481 32.2227H32.7646L32.7827 32.4168C32.7954 32.5619 32.8063 32.9883 32.6957 33.2096C32.5886 33.4237 32.2385 33.6341 32.1133 33.6976L32.2729 34.0169C32.3292 33.9879 32.8353 33.7285 33.015 33.3693H33.0168Z" fill="#231916"/>
  <path d="M34.7126 33.3418H33.4082V33.6992H34.7126V33.3418Z" fill="#231916"/>
  <path d="M34.8559 34.9826L35.1045 35.2656C34.5185 35.6212 33.6966 35.7681 32.9419 35.4216L33.3882 34.5127H35.7086V34.1553H32.4067V34.5127H32.9909L32.6317 35.2456C32.5827 35.2112 32.5319 35.1767 32.4829 35.1386L32.2598 35.418C32.7587 35.8171 33.3138 35.9786 33.8472 35.9786C34.3806 35.9786 34.9303 35.8044 35.3458 35.5377L35.6107 35.8389L35.8792 35.603L35.1244 34.7467L34.8559 34.9826Z" fill="#231916"/>
  <path d="M29.3495 33.0504C29.2606 33.2608 28.9703 33.4658 28.8669 33.5275L29.0484 33.8359C29.0973 33.8069 29.5273 33.5475 29.6779 33.1919C29.7142 33.1084 29.7378 33.0105 29.7541 32.9107H30.5215C30.5197 33.025 30.5052 33.1628 30.4617 33.2463C30.4018 33.3624 30.1931 33.4949 30.077 33.5493L30.2312 33.8722C30.273 33.8523 30.6431 33.669 30.7791 33.4114C30.9116 33.1592 30.8771 32.7583 30.8735 32.7129L30.8572 32.5515H29.7868C29.7904 32.3864 29.7813 32.2557 29.7795 32.2285L29.4239 32.2557C29.4294 32.3174 29.433 32.4281 29.4294 32.5515H28.7871V32.9089H29.3913C29.3804 32.9597 29.3677 33.0086 29.3495 33.0486V33.0504Z" fill="#231916"/>
  <path d="M29.7308 34.3876H29.0668C29.0704 34.1753 29.0668 34.0029 29.065 33.9902L28.7075 34.0029C28.7075 34.0029 28.713 34.1807 28.7075 34.3876H28.459V34.745H28.6894C28.684 34.8048 28.6767 34.8611 28.6676 34.9101C28.6132 35.2003 28.4336 35.4398 28.4336 35.4416L28.7184 35.6575C28.7275 35.6448 28.9488 35.3509 29.0196 34.9772C29.0323 34.9082 29.0432 34.8284 29.0504 34.745H29.3843C29.3843 34.9137 29.3788 35.1659 29.3425 35.3291C29.2899 35.5632 29.1176 35.7591 29.1158 35.7609L29.2482 35.8807L29.3806 36.0004C29.3897 35.9895 29.6165 35.7337 29.6909 35.4072C29.7598 35.1024 29.738 34.5817 29.738 34.5599L29.7308 34.3894V34.3876Z" fill="#231916"/>
  <path d="M31.2011 34.56L31.1938 34.3895H30.5298C30.5334 34.1772 30.5298 34.0049 30.528 33.9922L30.1706 34.0049C30.1706 34.0049 30.176 34.1827 30.1724 34.3895H29.9238V34.7469H30.1542C30.1488 34.8068 30.1415 34.863 30.1325 34.912C30.078 35.2023 29.8984 35.4418 29.8984 35.4436L30.1833 35.6595C30.1923 35.6468 30.4137 35.3529 30.4844 34.9791C30.4971 34.9102 30.508 34.8304 30.5153 34.7469H30.8491C30.8491 34.9156 30.8437 35.1678 30.8074 35.3311C30.7548 35.5651 30.5824 35.7611 30.5806 35.7629L30.8473 36.0006C30.8564 35.9897 31.0831 35.7339 31.1575 35.4073C31.2265 35.1025 31.2047 34.5818 31.2047 34.56H31.2011Z" fill="#231916"/>
  <path d="M28.4955 33.4064V33.049H28.0583V32.4268H27.7009V33.049H27.2637V33.4064H27.7009V35.852H28.0583V33.4064H28.4955Z" fill="#231916"/>
  <path d="M23.1872 35.724L23.1836 35.3666C24.5479 35.3539 25.6147 34.5411 26.0283 33.79L26.3422 33.9624C25.9866 34.6101 24.9216 35.7095 23.1872 35.724Z" fill="#231916"/>
  <path d="M22.7973 32.6205L22.7051 32.9658L23.9093 33.2874L24.0015 32.9421L22.7973 32.6205Z" fill="#231916"/>
  <path d="M21.3786 33.9417V33.5842H19.7948V32.4268H19.4374V33.5842H17.8535V33.9417H19.4374V35.852H19.7948V33.9417H21.3786Z" fill="#231916"/>
  <path d="M17.6855 35.2418L17.7418 35.5956C18.4602 35.4813 18.687 34.7593 18.6961 34.7284L18.355 34.625C18.3477 34.6468 18.1808 35.1656 17.6855 35.2437V35.2418Z" fill="#231916"/>
  <path d="M20.9163 34.6094L20.5625 34.6638C20.675 35.3913 21.388 35.6217 21.4188 35.6308L21.5259 35.2897C21.5041 35.2825 20.9943 35.1137 20.9163 34.6094Z" fill="#231916"/>
  <path d="M13.4688 35.8755V35.5181C15.0181 35.5181 15.6495 35.0355 15.6495 33.849V32.8711H16.0069V33.849C16.0069 35.665 14.5591 35.8755 13.4688 35.8755Z" fill="#231916"/>
  <path d="M13.0703 32.8711H12.7129V34.4186H13.0703V32.8711Z" fill="#231916"/>
  <path d="M11.1597 34.3182C11.1597 34.3182 10.8313 34.3617 10.4267 34.2256C10.0094 34.0841 9.68107 33.8211 9.67744 33.8193L9.67381 33.8247V32.4277H9.31641V35.853H9.67381V34.2529C9.82802 34.3526 10.053 34.4778 10.3124 34.5649C10.6009 34.6629 10.8549 34.6828 11.02 34.6828C11.1343 34.6828 11.205 34.6719 11.2123 34.6719L11.1597 34.3182Z" fill="#231916"/>
  <path d="M7.48129 33.9209H5.09375V34.2783H7.48129V33.9209Z" fill="#231916"/>
  <path d="M0.257762 35.5647L0.00195312 35.3162C0.00195312 35.3162 0.491802 34.8064 0.64057 34.1932C0.796594 33.5545 0.743977 32.3699 0.743977 32.3572L1.10138 32.3408C1.1032 32.3916 1.15581 33.589 0.987085 34.2766C0.814732 34.986 0.281347 35.5411 0.257762 35.5647Z" fill="#231916"/>
  <path d="M3.74299 35.9053C3.7194 35.8853 3.18239 35.3882 3.00822 34.7514C2.8395 34.1364 2.89211 33.0678 2.89392 33.0225L3.25133 33.0406C3.25133 33.0515 3.20053 34.0965 3.35293 34.6571C3.49988 35.1923 3.98066 35.6368 3.98429 35.6422L3.74299 35.9071V35.9053Z" fill="#231916"/>
  <path d="M9.81867 5.40281L4.90934 0L0 5.40281L4.90934 10.8074L9.81867 5.40281Z" fill="#F39800"/>
  <path d="M35.9991 16.2104L31.0898 10.8076L18 25.2163L22.9093 30.6191L35.9991 16.2104Z" fill="#F39800"/>
  <path d="M13.0914 30.6191L13.0898 30.6207H13.0914V30.6191Z" fill="#F39800"/>
  <path d="M31.091 0L26.1816 5.40281L31.091 10.8074L36.0003 16.2102V5.40281L31.091 0Z" fill="#E4007F"/>
  <path d="M31.0898 0H21.2711L18 3.60127L22.9093 9.00589L26.1804 5.40281L31.0898 0Z" fill="#F39800"/>
  <path d="M18.0017 3.60127L14.7288 0H4.91016L9.81949 5.40281L13.0924 9.00589H22.9111L18.0017 3.60127Z" fill="#E4007F"/>
  <path d="M22.9098 30.6207V30.6191L22.9082 30.6207H22.9098Z" fill="#E4007F"/>
  <path d="M18.0009 25.2157L4.90934 10.807L0 5.40234V16.2098L13.0916 30.6185V30.6203H22.9084L22.9102 30.6185L18.0009 25.2157Z" fill="#E4007F"/>
  <path d="M12.5039 13.9192V11.5752H12.7307V13.9192H12.5039ZM14.0224 13.9192V12.8125H12.9212V12.5621H14.0224V11.5788H14.2492V13.921H14.0224V13.9192Z" fill="#231916"/>
  <path d="M14.875 13.9192V11.5752H16.1813V11.8219H15.1018V12.5821H16.0797V12.8234H15.1018V13.6743H16.4951V13.9192H14.875Z" fill="#231916"/>
  <path d="M18.7077 13.9191L18.5063 13.3639H17.6989V13.1244H18.4228L17.9239 11.7256L17.1456 13.9172H16.9043L17.7298 11.5732H18.1198L18.9526 13.9172H18.7077V13.9191Z" fill="#231916"/>
  <path d="M20.9701 13.9192L19.9813 12.9087V12.6819H20.5093C20.8522 12.6819 21.0064 12.5894 21.0064 12.319V12.2156C21.0064 11.9598 20.9012 11.8183 20.5728 11.8183H19.6838V13.9192H19.457V11.5752H20.571C21.0862 11.5752 21.235 11.802 21.235 12.2047V12.3317C21.235 12.7726 20.9937 12.9177 20.5274 12.9177H20.3079L21.2731 13.9192H20.9719H20.9701Z" fill="#231916"/>
  <path d="M22.7092 11.8236V13.9172H22.4788V11.8236H21.6914V11.5732H23.4966V11.8236H22.7074H22.7092Z" fill="#231916"/>
  <path d="M14.0189 16.8831L13.0302 15.8725V15.6457H13.5581C13.901 15.6457 14.0552 15.5532 14.0552 15.2829V15.1795C14.0552 14.9237 13.95 14.7822 13.6216 14.7822H12.7326V16.8831H12.5059V14.5391H13.6198C14.135 14.5391 14.2838 14.7658 14.2838 15.1686V15.2956C14.2838 15.7365 14.0425 15.8834 13.5763 15.8834H13.3567L14.3219 16.8849H14.0208L14.0189 16.8831Z" fill="#231916"/>
  <path d="M14.6855 16.8831V14.5391H14.9123V16.8831H14.6855Z" fill="#231916"/>
  <path d="M16.4539 16.8831H15.8897V16.6418H16.4467C16.766 16.6418 16.8839 16.4839 16.8839 16.268V16.1882C16.8839 15.8979 16.7279 15.7764 16.2507 15.7764H16.0385V15.546H16.2834C16.7025 15.546 16.8404 15.419 16.8404 15.2103V15.1359C16.8404 14.8892 16.6916 14.7876 16.3832 14.7876H15.5922V16.1737H15.3672V14.5391H16.3922C16.8186 14.5391 17.0798 14.686 17.0798 15.1178V15.1976C17.0798 15.399 17.0018 15.5605 16.8004 15.6548C17 15.7419 17.1216 15.9052 17.1216 16.1937V16.2717C17.1216 16.6309 16.9546 16.8849 16.4557 16.8849L16.4539 16.8831Z" fill="#231916"/>
  <path d="M18.5652 16.8831H18.001V16.6418H18.558C18.8773 16.6418 18.9952 16.4839 18.9952 16.268V16.1882C18.9952 15.8979 18.8392 15.7764 18.3621 15.7764H18.1498V15.546H18.3947C18.8138 15.546 18.9517 15.419 18.9517 15.2103V15.1359C18.9517 14.8892 18.8029 14.7876 18.4945 14.7876H17.7035V16.1737H17.4785V14.5391H18.5036C18.9299 14.5391 19.1912 14.686 19.1912 15.1178V15.1976C19.1912 15.399 19.1131 15.5605 18.9118 15.6548C19.1113 15.7419 19.2329 15.9052 19.2329 16.1937V16.2717C19.2329 16.6309 19.066 16.8849 18.5671 16.8849L18.5652 16.8831Z" fill="#231916"/>
  <path d="M20.5144 16.8909H20.3892C19.7905 16.8909 19.5293 16.597 19.5293 15.9475V15.4812C19.5293 14.8172 19.8032 14.5342 20.3892 14.5342H20.5144C21.1004 14.5342 21.3816 14.8335 21.3816 15.4812V15.9475C21.3816 16.597 21.1131 16.8909 20.5144 16.8909ZM21.1549 15.4812C21.1549 14.975 20.9299 14.7918 20.5144 14.7918H20.3892C19.9738 14.7918 19.7525 14.975 19.7525 15.4812V15.9475C19.7525 16.4573 19.9738 16.6441 20.3892 16.6441H20.5144C20.9299 16.6441 21.1549 16.4573 21.1549 15.9475V15.4812Z" fill="#231916"/>
  <path d="M23.1075 16.8831L21.9808 14.7894V16.8831H21.7559V14.5391H22.0842L23.2218 16.6454V14.7332H23.4467V16.8849H23.1075V16.8831Z" fill="#231916"/>
  <path d="M56.9624 8.17041L56.5112 9.57227L55.292 9.11572C54.8408 10.7378 53.8794 11.9481 52.4077 12.7466L51.4946 11.769C52.2 11.2749 52.7282 10.7843 53.0791 10.2974C53.43 9.8068 53.6771 9.24463 53.8203 8.61084C52.9717 8.34587 52.1929 8.16683 51.4839 8.07373C50.3595 10.6769 49.1689 11.9785 47.9121 11.9785C47.443 11.9785 47.0581 11.8084 46.7573 11.4683C46.4565 11.1245 46.3062 10.7038 46.3062 10.2061C46.3062 9.35026 46.6785 8.54818 47.4233 7.7998C48.1681 7.05143 49.1206 6.67725 50.2808 6.67725H50.3667C50.5171 6.14372 50.637 5.52783 50.7266 4.82959H47.5684V3.55127H52.1982L52.4077 3.78223C52.3612 4.76693 52.1982 5.77311 51.9189 6.80078C52.5456 6.88672 53.2438 7.03532 54.0137 7.24658C54.0316 6.98519 54.0405 6.60205 54.0405 6.09717C54.0405 5.90023 54.0387 5.68717 54.0352 5.45801H55.5981L55.6035 6.37109C55.6071 6.87598 55.591 7.31999 55.5552 7.70312L56.9624 8.17041ZM49.9048 7.98242C49.4214 8.01823 49.0078 8.17578 48.6641 8.45508C48.3239 8.73079 48.084 9.03516 47.9443 9.36816C47.8083 9.69759 47.7402 9.96794 47.7402 10.1792C47.7402 10.4048 47.8083 10.5176 47.9443 10.5176C48.5423 10.5176 49.1958 9.67253 49.9048 7.98242ZM62.7739 3.33105C62.0327 4.85645 61.4401 6.12044 60.9961 7.12305C61.193 7.05143 61.39 7.01562 61.5869 7.01562C62.4105 7.01562 62.9243 7.37549 63.1284 8.09521L63.3218 10.0288C63.3612 10.4191 63.4578 10.7091 63.6118 10.8989C63.7658 11.0887 63.9771 11.1836 64.2456 11.1836C65.1909 11.1836 65.8122 10.07 66.1094 7.84277L67.5703 8.19727C67.3268 9.81934 66.9294 10.9526 66.3779 11.5972C65.8301 12.2417 65.0978 12.564 64.1812 12.564C63.3898 12.564 62.8062 12.376 62.4302 12C62.0578 11.6204 61.8465 10.9132 61.7964 9.87842L61.7642 9.11572C61.7534 8.86507 61.7087 8.66992 61.6299 8.53027C61.5511 8.38704 61.4437 8.31543 61.3076 8.31543C61.0534 8.31543 60.7705 8.46045 60.459 8.75049C60.151 9.04053 59.793 9.68327 59.3848 10.6787C59.0947 11.3304 58.8172 11.9767 58.5522 12.6177L57.0752 12.2524L59.3364 7.03711C59.4868 6.67904 60.1117 5.32373 61.2109 2.97119L62.7739 3.33105ZM72.0713 3.16992C72.0462 3.74284 72.005 4.26742 71.9478 4.74365H74.2896V6.02734H71.7544C71.3641 8.11491 70.5531 9.9375 69.3213 11.4951L68.145 10.6465C69.119 9.45052 69.8118 7.91081 70.2236 6.02734H68.5693V4.74365H70.4492C70.5173 4.23161 70.5584 3.69092 70.5728 3.12158L72.0713 3.16992ZM78.769 6.43555L77.5928 7.32715C77.224 6.88672 76.7065 6.36751 76.0405 5.76953C75.3745 5.17155 74.8285 4.74365 74.4023 4.48584L75.3047 3.48682C75.806 3.75895 76.3968 4.18864 77.0771 4.77588C77.7611 5.35954 78.325 5.91276 78.769 6.43555ZM78.6938 10.8989L77.8989 12.0913C77.1828 11.4969 76.5848 11.0654 76.105 10.7969C76.105 11.4163 75.9116 11.8765 75.5249 12.1772C75.1382 12.478 74.5008 12.6284 73.6128 12.6284C72.8966 12.6284 72.3022 12.4709 71.8296 12.1558C71.3569 11.8407 71.1206 11.4038 71.1206 10.8452C71.1206 10.2472 71.3713 9.77458 71.8726 9.42725C72.3739 9.07633 72.9862 8.90088 73.7095 8.90088C74.0389 8.90088 74.3433 8.92057 74.6226 8.95996V6.17236H76.105V9.36279C76.7925 9.64209 77.6554 10.1541 78.6938 10.8989ZM74.6226 10.147C74.3361 10.0861 74.0317 10.0557 73.7095 10.0557C73.38 10.0557 73.0954 10.1183 72.8555 10.2437C72.6191 10.3654 72.501 10.5355 72.501 10.7539C72.501 11.2051 72.9181 11.4307 73.7524 11.4307C74.3325 11.4307 74.6226 11.2212 74.6226 10.8022V10.147ZM85.5098 12.0376C85.2734 12.0841 84.4714 12.1665 83.1035 12.2847C81.7393 12.4028 80.6865 12.4816 79.9453 12.521L79.7251 11.1997C79.965 11.1961 80.3875 11.1818 80.9927 11.1567V6.17773C80.5343 6.36035 80.076 6.51253 79.6177 6.63428L79.0645 5.51172C80.2174 5.17871 81.2021 4.75618 82.0186 4.24414C82.835 3.7321 83.4168 3.26302 83.7642 2.83691H85.1606C85.6297 3.3418 86.3333 3.82878 87.2715 4.29785C88.2132 4.76693 89.1012 5.09814 89.9355 5.2915L89.2104 6.52686C88.8094 6.39795 88.4012 6.24756 87.9858 6.07568V9.18018C88.1971 9.06559 88.3743 8.96175 88.5176 8.86865L89.5381 9.81396C89.0833 10.0682 88.471 10.3439 87.7012 10.6411C88.2275 10.8381 88.9491 11.0314 89.8657 11.2212L89.1084 12.5103C87.626 12.1486 86.4264 11.6348 85.5098 10.9688V12.0376ZM82.3569 5.54395H83.8716V4.63086H85.2036V5.54395H86.8257C85.8625 5.05339 85.0908 4.54492 84.5107 4.01855C83.9629 4.55924 83.245 5.06771 82.3569 5.54395ZM82.5181 7.01025H86.5142V6.43555H82.5181V7.01025ZM86.5142 7.78906H82.5181V8.40674H86.5142V7.78906ZM87.6313 9.36279H85.5957C85.8034 9.55615 86.0469 9.74772 86.3262 9.9375C86.7738 9.76204 87.2088 9.57048 87.6313 9.36279ZM82.5127 11.0869C83.9414 11.0117 84.8957 10.9383 85.3755 10.8667C84.8348 10.4549 84.3424 9.95361 83.8984 9.36279H82.5181L82.5127 11.0869ZM91.9927 4.42139L91.4824 3.23438L92.9058 2.93896L93.5342 4.42139H94.6836V2.79395H96.2036V4.42139H97.3853L98.105 2.93896L99.6035 3.2666L98.9375 4.42139H100.517V6.73096H99.2168V5.55469H91.8047V6.73096H90.5049V4.42139H91.9927ZM100.495 12.3438H90.5049V11.1675H94.6406V10.5498H90.9023V9.38428H94.6406V8.80957H92.0034V5.99512H98.9536V8.80957H96.1929V9.38428H100.065V10.5498H96.1929V11.1675H100.495V12.3438ZM97.5356 7.7998V7.01025H93.3892V7.7998H97.5356Z" fill="black"/>
  <path d="M52.8594 27.9219C52.1406 28.901 51.2682 29.849 50.2422 30.7656C49.2161 31.6771 48.2292 32.4036 47.2812 32.9453L46.0938 31.3438C47.3073 30.6094 48.4818 29.6641 49.6172 28.5078C50.7578 27.3464 51.6198 26.2656 52.2031 25.2656H46.8438V23.2969H52.8594V20.6875H55.1172V23.2969H61.1953V25.2656H55.7031C57.2292 27.625 59.3021 29.5443 61.9219 31.0234L60.5781 32.8828C58.3229 31.5026 56.5026 29.8411 55.1172 27.8984V30.5625H57.4219V32.4375H55.1172V34.9141H52.8594V32.4375H50.4922V30.5625H52.8594V27.9219ZM71.2344 27.7812H62.4453V26.0156H64.2969L63.7578 23.9844H62.7344V22.2422H65.9844V20.7578H68.1562V22.2422H71.1484V23.9844H70.3281L69.6641 26.0156H71.2344V27.7812ZM66.3906 26.0156H67.6328L68.1797 23.9844H65.875L66.3906 26.0156ZM77.5234 21.6484C77.4818 21.9557 77.2786 22.6302 76.9141 23.6719C76.5547 24.7135 76.276 25.4479 76.0781 25.875C76.9219 27.1146 77.3438 28.3385 77.3438 29.5469C77.3438 30.0781 77.2839 30.5391 77.1641 30.9297C77.0495 31.3151 76.8724 31.6328 76.6328 31.8828C76.3932 32.1276 76.1094 32.2969 75.7812 32.3906C75.4531 32.4844 74.9557 32.5312 74.2891 32.5312H74.1562L73.7422 30.6562H74.1562C74.5365 30.6562 74.7578 30.6458 74.8203 30.625C74.888 30.599 74.9609 30.5417 75.0391 30.4531C75.1172 30.3646 75.1771 30.2292 75.2188 30.0469C75.2604 29.8594 75.2812 29.6302 75.2812 29.3594C75.2812 28.8333 75.1771 28.2786 74.9688 27.6953C74.7604 27.1068 74.5182 26.6328 74.2422 26.2734C74.1797 26.1693 74.1484 26.0677 74.1484 25.9688C74.1484 25.8854 74.1693 25.8021 74.2109 25.7188C74.3724 25.4062 74.6328 24.4453 74.9922 22.8359H73.7109V34.9297H71.6484V21.1875H77.0859L77.5234 21.6484ZM68.3828 34.0859H65.2188V34.7422H63.1484V28.5625H70.4922V34.7422H68.3828V34.0859ZM65.2188 32.4219H68.3828V30.2734H65.2188V32.4219ZM82.5781 20.9297C82.474 21.1641 82.349 21.3984 82.2031 21.6328H85.6797V22.9453H83.8594L84.3984 23.8281L82.5469 24.1797L81.8906 22.9453H81.2266C80.7943 23.4505 80.2943 23.9193 79.7266 24.3516L78.2109 23.5547C79.1484 22.7578 79.9167 21.7917 80.5156 20.6562L82.5781 20.9297ZM89.5547 20.9766L89.2109 21.6328H93.4531V22.9453H91.2812L91.8594 23.75L89.9219 24.0703L89.2109 22.9453H88.2812C87.9167 23.3672 87.5885 23.6979 87.2969 23.9375L86.9922 23.8047V24.5H93.2344V27.2812H91.375V25.7656H80.6406V26.5H90.9609V29.7812H82.5781V30.6719H92.2109V34.8047H90.0938V34.375H82.5938V34.8047H80.3984V27.3828H78.7812V24.5H84.8672V23.6016H86.5078L85.6797 23.25C86.3828 22.4792 86.8099 21.9844 86.9609 21.7656C87.112 21.5469 87.3203 21.1823 87.5859 20.6719L89.5547 20.9766ZM88.9297 28.6406V27.6172H82.6094V28.6406H88.9297ZM90.0938 33.0938V31.8906H82.6094V33.0938H90.0938ZM99.5703 31.1719C98.3984 31.6354 96.7552 32.125 94.6406 32.6406L94.1953 30.8672L96.1094 30.4141V27.1562H94.6094V25.5391H96.1094V23.0234H94.6094V21.4141H99.5859V23.0234H98.1562V25.5391H99.4531V27.1562H98.1562V29.8516C98.776 29.6641 99.2786 29.4948 99.6641 29.3438L99.7422 30.0547H103.297V28.9297H99.9375V20.9766H108.812V28.9297H105.484V30.0547H109.008V31.7344H105.484V32.9141H109.508V34.6406H99.0547V32.9141H103.297V31.7344H99.5703V31.1719ZM105.484 24.1641H106.703V22.6406H105.484V24.1641ZM102.031 24.1641H103.297V22.6406H102.031V24.1641ZM103.297 25.6484H102.031V27.25H103.297V25.6484ZM106.703 25.6484H105.484V27.25H106.703V25.6484ZM122.883 24.3828H125.648V26.4297H122.883V27.875C122.883 30.0833 122.096 31.7786 120.523 32.9609C118.951 34.1432 116.654 34.763 113.633 34.8203L113.297 32.7656C116.026 32.6719 117.919 32.1901 118.977 31.3203C120.034 30.4453 120.562 29.2969 120.562 27.875V26.4297H115.742V30.2266H113.391V26.4297H110.547V24.3828H113.391V21.1562H115.742V24.3828H120.562V20.9297H122.883V24.3828ZM136.125 34.75H133.727V27.6641C131.784 28.6589 129.62 29.4427 127.234 30.0156L126.516 27.9688C129.266 27.3125 131.656 26.3464 133.688 25.0703C135.719 23.7943 137.258 22.3281 138.305 20.6719L140.578 21.5391C139.776 22.7422 139.031 23.6771 138.344 24.3438C137.656 25.0104 136.917 25.6198 136.125 26.1719V34.75ZM157.203 28.8984L155.727 30.75C153.508 29.2448 151.208 28.0833 148.828 27.2656V34.8828H146.367V20.7891H148.852V24.9609C151.487 25.8099 154.271 27.1224 157.203 28.8984Z" fill="#D23C73"/>
  </svg>
  