<svg width="159" height="37" viewBox="0 0 159 37" fill="none" xmlns="http://www.w3.org/2000/svg">
  <path d="M21.1307 33.1558C21.2589 33.1558 21.3629 33.0519 21.3629 32.9236C21.3629 32.7954 21.2589 32.6914 21.1307 32.6914C21.0024 32.6914 20.8984 32.7954 20.8984 32.9236C20.8984 33.0519 21.0024 33.1558 21.1307 33.1558Z" fill="#231916"/>
  <path d="M20.3904 33.1558C20.5187 33.1558 20.6226 33.0519 20.6226 32.9236C20.6226 32.7954 20.5187 32.6914 20.3904 32.6914C20.2622 32.6914 20.1582 32.7954 20.1582 32.9236C20.1582 33.0519 20.2622 33.1558 20.3904 33.1558Z" fill="#231916"/>
  <path d="M33.0158 33.3692C33.1355 33.1316 33.1519 32.7923 33.1482 32.5801H34.9643C34.9606 32.7941 34.9788 33.1316 35.0967 33.3692C35.2763 33.7285 35.7807 33.9879 35.8387 34.0169L35.9984 33.6976C35.8732 33.6341 35.5231 33.4237 35.416 33.2096C35.309 32.9955 35.3162 32.5637 35.3289 32.4168L35.3471 32.2227H32.7636L32.7818 32.4168C32.7945 32.5619 32.8053 32.9883 32.6947 33.2096C32.5876 33.4237 32.2375 33.6341 32.1123 33.6976L32.272 34.0169C32.3282 33.9879 32.8344 33.7285 33.014 33.3692H33.0158Z" fill="#231916"/>
  <path d="M34.7107 33.3418H33.4062V33.6992H34.7107V33.3418Z" fill="#231916"/>
  <path d="M34.8559 34.9816L35.1045 35.2646C34.5185 35.6202 33.6966 35.7672 32.9419 35.4206L33.3882 34.5117H35.7086V34.1543H32.4067V34.5117H32.9909L32.6317 35.2447C32.5827 35.2102 32.5319 35.1757 32.4829 35.1376L32.2598 35.417C32.7587 35.8161 33.3138 35.9776 33.8472 35.9776C34.3806 35.9776 34.9303 35.8034 35.3458 35.5367L35.6107 35.8379L35.8792 35.6021L35.1244 34.7457L34.8559 34.9816Z" fill="#231916"/>
  <path d="M29.3466 33.0504C29.2577 33.2608 28.9674 33.4658 28.864 33.5275L29.0454 33.8359C29.0944 33.8069 29.5244 33.5475 29.675 33.1919C29.7113 33.1084 29.7348 33.0104 29.7512 32.9107H30.5186C30.5168 33.025 30.5023 33.1628 30.4587 33.2463C30.3988 33.3624 30.1902 33.4948 30.0741 33.5493L30.2283 33.8722C30.27 33.8523 30.6401 33.669 30.7762 33.4114C30.9086 33.1592 30.8742 32.7583 30.8705 32.7129L30.8542 32.5514H29.7838C29.7875 32.3864 29.7784 32.2557 29.7766 32.2285L29.421 32.2557C29.4264 32.3174 29.43 32.4281 29.4264 32.5514H28.7842V32.9089H29.3883C29.3774 32.9597 29.3647 33.0086 29.3466 33.0485V33.0504Z" fill="#231916"/>
  <path d="M29.7298 34.3875H29.0658C29.0694 34.1753 29.0658 34.0029 29.064 33.9902L28.7066 34.0029C28.7066 34.0029 28.712 34.1807 28.7066 34.3875H28.458V34.745H28.6884C28.683 34.8048 28.6757 34.8611 28.6667 34.91C28.6122 35.2003 28.4326 35.4398 28.4326 35.4416L28.7175 35.6575C28.7265 35.6448 28.9479 35.3509 29.0186 34.9772C29.0313 34.9082 29.0422 34.8284 29.0495 34.745H29.3833C29.3833 34.9137 29.3778 35.1659 29.3415 35.3291C29.2889 35.5632 29.1166 35.7591 29.1148 35.7609L29.2472 35.8807L29.3796 36.0004C29.3887 35.9895 29.6155 35.7337 29.6899 35.4071C29.7588 35.1024 29.7371 34.5817 29.7371 34.5599L29.7298 34.3894V34.3875Z" fill="#231916"/>
  <path d="M31.1991 34.56L31.1918 34.3895H30.5278C30.5315 34.1772 30.5278 34.0049 30.526 33.9922L30.1686 34.0049C30.1686 34.0049 30.1741 34.1827 30.1704 34.3895H29.9219V34.7469H30.1523C30.1468 34.8068 30.1396 34.863 30.1305 34.912C30.0761 35.2023 29.8965 35.4418 29.8965 35.4436L30.1813 35.6595C30.1904 35.6468 30.4117 35.3529 30.4825 34.9791C30.4952 34.9102 30.5061 34.8304 30.5133 34.7469H30.8471C30.8471 34.9156 30.8417 35.1678 30.8054 35.3311C30.7528 35.5651 30.5805 35.7611 30.5786 35.7629L30.8453 36.0005C30.8544 35.9897 31.0812 35.7339 31.1556 35.4073C31.2245 35.1025 31.2027 34.5818 31.2027 34.56H31.1991Z" fill="#231916"/>
  <path d="M28.4946 33.4055V33.0481H28.0573V32.4258H27.6999V33.0481H27.2627V33.4055H27.6999V35.8511H28.0573V33.4055H28.4946Z" fill="#231916"/>
  <path d="M23.1882 35.723L23.1846 35.3656C24.5489 35.3529 25.6156 34.5402 26.0293 33.7891L26.3431 33.9614C25.9876 34.6091 24.9226 35.7085 23.1882 35.723Z" fill="#231916"/>
  <path d="M22.7973 32.6215L22.7051 32.9668L23.9093 33.2883L24.0015 32.943L22.7973 32.6215Z" fill="#231916"/>
  <path d="M21.3795 33.9407V33.5833H19.7957V32.4258H19.4383V33.5833H17.8545V33.9407H19.4383V35.8511H19.7957V33.9407H21.3795Z" fill="#231916"/>
  <path d="M17.6855 35.2418L17.7418 35.5956C18.4602 35.4813 18.687 34.7593 18.6961 34.7284L18.355 34.625C18.3477 34.6468 18.1808 35.1656 17.6855 35.2437V35.2418Z" fill="#231916"/>
  <path d="M20.9163 34.6094L20.5625 34.6638C20.675 35.3913 21.388 35.6217 21.4188 35.6308L21.5259 35.2897C21.5041 35.2825 20.9943 35.1137 20.9163 34.6094Z" fill="#231916"/>
  <path d="M13.4688 35.8755V35.5181C15.0181 35.5181 15.6495 35.0355 15.6495 33.849V32.8711H16.0069V33.849C16.0069 35.665 14.5591 35.8755 13.4688 35.8755Z" fill="#231916"/>
  <path d="M13.0693 32.8711H12.7119V34.4186H13.0693V32.8711Z" fill="#231916"/>
  <path d="M11.1597 34.3182C11.1597 34.3182 10.8313 34.3617 10.4267 34.2256C10.0094 34.0841 9.68107 33.8211 9.67744 33.8193L9.67381 33.8247V32.4277H9.31641V35.853H9.67381V34.2529C9.82802 34.3526 10.053 34.4778 10.3124 34.5649C10.6009 34.6629 10.8549 34.6828 11.02 34.6828C11.1343 34.6828 11.205 34.6719 11.2123 34.6719L11.1597 34.3182Z" fill="#231916"/>
  <path d="M7.4803 33.9219H5.09277V34.2793H7.4803V33.9219Z" fill="#231916"/>
  <path d="M0.257761 35.5637L0.00195312 35.3152C0.00195312 35.3152 0.491799 34.8054 0.640566 34.1922C0.79659 33.5536 0.743973 32.3689 0.743973 32.3562L1.10138 32.3398C1.10319 32.3906 1.1558 33.588 0.98708 34.2756C0.814728 34.985 0.281346 35.5402 0.257761 35.5637Z" fill="#231916"/>
  <path d="M3.74298 35.9043C3.7194 35.8843 3.18239 35.3872 3.00822 34.7504C2.8395 34.1354 2.89211 33.0668 2.89392 33.0215L3.25133 33.0396C3.25133 33.0505 3.20053 34.0955 3.35293 34.6561C3.49988 35.1913 3.98065 35.6358 3.98428 35.6412L3.74298 35.9061V35.9043Z" fill="#231916"/>
  <path d="M9.81863 5.40278L4.90931 0L0 5.40278L4.90931 10.8074L9.81863 5.40278Z" fill="#F39800"/>
  <path d="M36 16.2094L31.0907 10.8066L18.001 25.2153L22.9103 30.6181L36 16.2094Z" fill="#F39800"/>
  <path d="M13.0917 30.6191L13.0898 30.621H13.0917V30.6191Z" fill="#F39800"/>
  <path d="M31.091 0L26.1816 5.40278L31.091 10.8074L36.0003 16.2102V5.40278L31.091 0Z" fill="#E4007F"/>
  <path d="M31.0907 0H21.272L18.001 3.60125L22.9103 9.00585L26.1814 5.40278L31.0907 0Z" fill="#F39800"/>
  <path d="M18.0007 3.60125L14.7278 0H4.90918L9.81849 5.40278L13.0914 9.00585H22.91L18.0007 3.60125Z" fill="#E4007F"/>
  <path d="M22.91 30.621V30.6191L22.9082 30.621H22.91Z" fill="#E4007F"/>
  <path d="M18.0008 25.2156L4.90931 10.8069L0 5.40234V16.2097L13.0915 30.6184V30.6202H22.9083L22.9101 30.6184L18.0008 25.2156Z" fill="#E4007F"/>
  <path d="M12.5039 13.9182V11.5742H12.7307V13.9182H12.5039ZM14.0224 13.9182V12.8115H12.9212V12.5612H14.0224V11.5778H14.2492V13.92H14.0224V13.9182Z" fill="#231916"/>
  <path d="M14.875 13.9182V11.5742H16.1812V11.821H15.1018V12.5811H16.0796V12.8224H15.1018V13.6733H16.4951V13.9182H14.875Z" fill="#231916"/>
  <path d="M18.7067 13.9181L18.5053 13.3629H17.698V13.1234H18.4218L17.9229 11.7247L17.1446 13.9163H16.9033L17.7288 11.5723H18.1189L18.9516 13.9163H18.7067V13.9181Z" fill="#231916"/>
  <path d="M20.9691 13.9182L19.9804 12.9077V12.6809H20.5083C20.8512 12.6809 21.0054 12.5884 21.0054 12.3181V12.2146C21.0054 11.9588 20.9002 11.8173 20.5718 11.8173H19.6828V13.9182H19.4561V11.5742H20.57C21.0852 11.5742 21.234 11.801 21.234 12.2038V12.3308C21.234 12.7716 20.9927 12.9168 20.5265 12.9168H20.3069L21.2721 13.9182H20.9709H20.9691Z" fill="#231916"/>
  <path d="M22.7092 11.8226V13.9163H22.4788V11.8226H21.6914V11.5723H23.4966V11.8226H22.7074H22.7092Z" fill="#231916"/>
  <path d="M14.0189 16.8831L13.0302 15.8725V15.6457H13.5581C13.901 15.6457 14.0552 15.5532 14.0552 15.2829V15.1795C14.0552 14.9237 13.95 14.7822 13.6216 14.7822H12.7326V16.8831H12.5059V14.5391H13.6198C14.135 14.5391 14.2838 14.7658 14.2838 15.1686V15.2956C14.2838 15.7365 14.0425 15.8834 13.5763 15.8834H13.3567L14.3219 16.8849H14.0207L14.0189 16.8831Z" fill="#231916"/>
  <path d="M14.6846 16.8831V14.5391H14.9113V16.8831H14.6846Z" fill="#231916"/>
  <path d="M16.4529 16.8831H15.8887V16.6418H16.4457C16.765 16.6418 16.8829 16.4839 16.8829 16.268V16.1882C16.8829 15.8979 16.7269 15.7764 16.2497 15.7764H16.0375V15.546H16.2824C16.7015 15.546 16.8394 15.419 16.8394 15.2103V15.1359C16.8394 14.8892 16.6906 14.7876 16.3822 14.7876H15.5912V16.1737H15.3662V14.5391H16.3913C16.8176 14.5391 17.0788 14.686 17.0788 15.1178V15.1976C17.0788 15.399 17.0008 15.5605 16.7995 15.6548C16.999 15.7419 17.1206 15.9052 17.1206 16.1936V16.2717C17.1206 16.6309 16.9537 16.8849 16.4548 16.8849L16.4529 16.8831Z" fill="#231916"/>
  <path d="M18.5652 16.8831H18.001V16.6418H18.558C18.8773 16.6418 18.9952 16.4839 18.9952 16.268V16.1882C18.9952 15.8979 18.8392 15.7764 18.362 15.7764H18.1498V15.546H18.3947C18.8138 15.546 18.9517 15.419 18.9517 15.2103V15.1359C18.9517 14.8892 18.8029 14.7876 18.4945 14.7876H17.7035V16.1737H17.4785V14.5391H18.5036C18.9299 14.5391 19.1912 14.686 19.1912 15.1178V15.1976C19.1912 15.399 19.1131 15.5605 18.9118 15.6548C19.1113 15.7419 19.2329 15.9052 19.2329 16.1936V16.2717C19.2329 16.6309 19.066 16.8849 18.5671 16.8849L18.5652 16.8831Z" fill="#231916"/>
  <path d="M20.5134 16.8899H20.3883C19.7896 16.8899 19.5283 16.596 19.5283 15.9465V15.4802C19.5283 14.8162 19.8023 14.5332 20.3883 14.5332H20.5134C21.0994 14.5332 21.3807 14.8326 21.3807 15.4802V15.9465C21.3807 16.596 21.1121 16.8899 20.5134 16.8899ZM21.1539 15.4802C21.1539 14.9741 20.9289 14.7908 20.5134 14.7908H20.3883C19.9728 14.7908 19.7515 14.9741 19.7515 15.4802V15.9465C19.7515 16.4563 19.9728 16.6432 20.3883 16.6432H20.5134C20.9289 16.6432 21.1539 16.4563 21.1539 15.9465V15.4802Z" fill="#231916"/>
  <path d="M23.1065 16.8831L21.9799 14.7894V16.8831H21.7549V14.5391H22.0833L23.2208 16.6454V14.7332H23.4457V16.8849H23.1065V16.8831Z" fill="#231916"/>
  <path d="M56.9624 8.17041L56.5112 9.57227L55.292 9.11572C54.8408 10.7378 53.8794 11.9481 52.4077 12.7466L51.4946 11.769C52.2 11.2749 52.7282 10.7843 53.0791 10.2974C53.43 9.8068 53.6771 9.24463 53.8203 8.61084C52.9717 8.34587 52.1929 8.16683 51.4839 8.07373C50.3595 10.6769 49.1689 11.9785 47.9121 11.9785C47.443 11.9785 47.0581 11.8084 46.7573 11.4683C46.4565 11.1245 46.3062 10.7038 46.3062 10.2061C46.3062 9.35026 46.6785 8.54818 47.4233 7.7998C48.1681 7.05143 49.1206 6.67725 50.2808 6.67725H50.3667C50.5171 6.14372 50.637 5.52783 50.7266 4.82959H47.5684V3.55127H52.1982L52.4077 3.78223C52.3612 4.76693 52.1982 5.77311 51.9189 6.80078C52.5456 6.88672 53.2438 7.03532 54.0137 7.24658C54.0316 6.98519 54.0405 6.60205 54.0405 6.09717C54.0405 5.90023 54.0387 5.68717 54.0352 5.45801H55.5981L55.6035 6.37109C55.6071 6.87598 55.591 7.31999 55.5552 7.70312L56.9624 8.17041ZM49.9048 7.98242C49.4214 8.01823 49.0078 8.17578 48.6641 8.45508C48.3239 8.73079 48.084 9.03516 47.9443 9.36816C47.8083 9.69759 47.7402 9.96794 47.7402 10.1792C47.7402 10.4048 47.8083 10.5176 47.9443 10.5176C48.5423 10.5176 49.1958 9.67253 49.9048 7.98242ZM62.7739 3.33105C62.0327 4.85645 61.4401 6.12044 60.9961 7.12305C61.193 7.05143 61.39 7.01562 61.5869 7.01562C62.4105 7.01562 62.9243 7.37549 63.1284 8.09521L63.3218 10.0288C63.3612 10.4191 63.4578 10.7091 63.6118 10.8989C63.7658 11.0887 63.9771 11.1836 64.2456 11.1836C65.1909 11.1836 65.8122 10.07 66.1094 7.84277L67.5703 8.19727C67.3268 9.81934 66.9294 10.9526 66.3779 11.5972C65.8301 12.2417 65.0978 12.564 64.1812 12.564C63.3898 12.564 62.8062 12.376 62.4302 12C62.0578 11.6204 61.8465 10.9132 61.7964 9.87842L61.7642 9.11572C61.7534 8.86507 61.7087 8.66992 61.6299 8.53027C61.5511 8.38704 61.4437 8.31543 61.3076 8.31543C61.0534 8.31543 60.7705 8.46045 60.459 8.75049C60.151 9.04053 59.793 9.68327 59.3848 10.6787C59.0947 11.3304 58.8172 11.9767 58.5522 12.6177L57.0752 12.2524L59.3364 7.03711C59.4868 6.67904 60.1117 5.32373 61.2109 2.97119L62.7739 3.33105ZM72.0713 3.16992C72.0462 3.74284 72.005 4.26742 71.9478 4.74365H74.2896V6.02734H71.7544C71.3641 8.11491 70.5531 9.9375 69.3213 11.4951L68.145 10.6465C69.119 9.45052 69.8118 7.91081 70.2236 6.02734H68.5693V4.74365H70.4492C70.5173 4.23161 70.5584 3.69092 70.5728 3.12158L72.0713 3.16992ZM78.769 6.43555L77.5928 7.32715C77.224 6.88672 76.7065 6.36751 76.0405 5.76953C75.3745 5.17155 74.8285 4.74365 74.4023 4.48584L75.3047 3.48682C75.806 3.75895 76.3968 4.18864 77.0771 4.77588C77.7611 5.35954 78.325 5.91276 78.769 6.43555ZM78.6938 10.8989L77.8989 12.0913C77.1828 11.4969 76.5848 11.0654 76.105 10.7969C76.105 11.4163 75.9116 11.8765 75.5249 12.1772C75.1382 12.478 74.5008 12.6284 73.6128 12.6284C72.8966 12.6284 72.3022 12.4709 71.8296 12.1558C71.3569 11.8407 71.1206 11.4038 71.1206 10.8452C71.1206 10.2472 71.3713 9.77458 71.8726 9.42725C72.3739 9.07633 72.9862 8.90088 73.7095 8.90088C74.0389 8.90088 74.3433 8.92057 74.6226 8.95996V6.17236H76.105V9.36279C76.7925 9.64209 77.6554 10.1541 78.6938 10.8989ZM74.6226 10.147C74.3361 10.0861 74.0317 10.0557 73.7095 10.0557C73.38 10.0557 73.0954 10.1183 72.8555 10.2437C72.6191 10.3654 72.501 10.5355 72.501 10.7539C72.501 11.2051 72.9181 11.4307 73.7524 11.4307C74.3325 11.4307 74.6226 11.2212 74.6226 10.8022V10.147ZM85.5098 12.0376C85.2734 12.0841 84.4714 12.1665 83.1035 12.2847C81.7393 12.4028 80.6865 12.4816 79.9453 12.521L79.7251 11.1997C79.965 11.1961 80.3875 11.1818 80.9927 11.1567V6.17773C80.5343 6.36035 80.076 6.51253 79.6177 6.63428L79.0645 5.51172C80.2174 5.17871 81.2021 4.75618 82.0186 4.24414C82.835 3.7321 83.4168 3.26302 83.7642 2.83691H85.1606C85.6297 3.3418 86.3333 3.82878 87.2715 4.29785C88.2132 4.76693 89.1012 5.09814 89.9355 5.2915L89.2104 6.52686C88.8094 6.39795 88.4012 6.24756 87.9858 6.07568V9.18018C88.1971 9.06559 88.3743 8.96175 88.5176 8.86865L89.5381 9.81396C89.0833 10.0682 88.471 10.3439 87.7012 10.6411C88.2275 10.8381 88.9491 11.0314 89.8657 11.2212L89.1084 12.5103C87.626 12.1486 86.4264 11.6348 85.5098 10.9688V12.0376ZM82.3569 5.54395H83.8716V4.63086H85.2036V5.54395H86.8257C85.8625 5.05339 85.0908 4.54492 84.5107 4.01855C83.9629 4.55924 83.245 5.06771 82.3569 5.54395ZM82.5181 7.01025H86.5142V6.43555H82.5181V7.01025ZM86.5142 7.78906H82.5181V8.40674H86.5142V7.78906ZM87.6313 9.36279H85.5957C85.8034 9.55615 86.0469 9.74772 86.3262 9.9375C86.7738 9.76204 87.2088 9.57048 87.6313 9.36279ZM82.5127 11.0869C83.9414 11.0117 84.8957 10.9383 85.3755 10.8667C84.8348 10.4549 84.3424 9.95361 83.8984 9.36279H82.5181L82.5127 11.0869ZM91.9927 4.42139L91.4824 3.23438L92.9058 2.93896L93.5342 4.42139H94.6836V2.79395H96.2036V4.42139H97.3853L98.105 2.93896L99.6035 3.2666L98.9375 4.42139H100.517V6.73096H99.2168V5.55469H91.8047V6.73096H90.5049V4.42139H91.9927ZM100.495 12.3438H90.5049V11.1675H94.6406V10.5498H90.9023V9.38428H94.6406V8.80957H92.0034V5.99512H98.9536V8.80957H96.1929V9.38428H100.065V10.5498H96.1929V11.1675H100.495V12.3438ZM97.5356 7.7998V7.01025H93.3892V7.7998H97.5356Z" fill="black"/>
  <path d="M61.0312 24.3203C60.25 26.2474 58.9245 27.9349 57.0547 29.3828C58.6068 30.0339 60.3958 30.4974 62.4219 30.7734L61.3516 32.7734C58.8568 32.3255 56.7344 31.6094 54.9844 30.625C52.9375 31.6927 50.724 32.4141 48.3438 32.7891L47.6406 30.9766C49.7812 30.5911 51.5755 30.0495 53.0234 29.3516C51.6276 28.2891 50.5859 27.0885 49.8984 25.75L50.6562 25.4141H48.7734V23.6484H53.75V22.1641H47.8281V20.3359H53.75V18.6875H55.9922V20.3359H62.0234V22.1641H55.9922V23.6484H60.1875L61.0312 24.3203ZM54.9609 28.2969C56.3828 27.3438 57.3828 26.388 57.9609 25.4297L51.9844 25.4219C52.6875 26.4896 53.6797 27.4479 54.9609 28.2969ZM72.2344 25.7812H63.4453V24.0156H65.2969L64.7578 21.9844H63.7344V20.2422H66.9844V18.7578H69.1562V20.2422H72.1484V21.9844H71.3281L70.6641 24.0156H72.2344V25.7812ZM67.3906 24.0156H68.6328L69.1797 21.9844H66.875L67.3906 24.0156ZM78.5234 19.6484C78.4818 19.9557 78.2786 20.6302 77.9141 21.6719C77.5547 22.7135 77.276 23.4479 77.0781 23.875C77.9219 25.1146 78.3438 26.3385 78.3438 27.5469C78.3438 28.0781 78.2839 28.5391 78.1641 28.9297C78.0495 29.3151 77.8724 29.6328 77.6328 29.8828C77.3932 30.1276 77.1094 30.2969 76.7812 30.3906C76.4531 30.4844 75.9557 30.5312 75.2891 30.5312H75.1562L74.7422 28.6562H75.1562C75.5365 28.6562 75.7578 28.6458 75.8203 28.625C75.888 28.599 75.9609 28.5417 76.0391 28.4531C76.1172 28.3646 76.1771 28.2292 76.2188 28.0469C76.2604 27.8594 76.2812 27.6302 76.2812 27.3594C76.2812 26.8333 76.1771 26.2786 75.9688 25.6953C75.7604 25.1068 75.5182 24.6328 75.2422 24.2734C75.1797 24.1693 75.1484 24.0677 75.1484 23.9688C75.1484 23.8854 75.1693 23.8021 75.2109 23.7188C75.3724 23.4062 75.6328 22.4453 75.9922 20.8359H74.7109V32.9297H72.6484V19.1875H78.0859L78.5234 19.6484ZM69.3828 32.0859H66.2188V32.7422H64.1484V26.5625H71.4922V32.7422H69.3828V32.0859ZM66.2188 30.4219H69.3828V28.2734H66.2188V30.4219ZM83.5781 18.9297C83.474 19.1641 83.349 19.3984 83.2031 19.6328H86.6797V20.9453H84.8594L85.3984 21.8281L83.5469 22.1797L82.8906 20.9453H82.2266C81.7943 21.4505 81.2943 21.9193 80.7266 22.3516L79.2109 21.5547C80.1484 20.7578 80.9167 19.7917 81.5156 18.6562L83.5781 18.9297ZM90.5547 18.9766L90.2109 19.6328H94.4531V20.9453H92.2812L92.8594 21.75L90.9219 22.0703L90.2109 20.9453H89.2812C88.9167 21.3672 88.5885 21.6979 88.2969 21.9375L87.9922 21.8047V22.5H94.2344V25.2812H92.375V23.7656H81.6406V24.5H91.9609V27.7812H83.5781V28.6719H93.2109V32.8047H91.0938V32.375H83.5938V32.8047H81.3984V25.3828H79.7812V22.5H85.8672V21.6016H87.5078L86.6797 21.25C87.3828 20.4792 87.8099 19.9844 87.9609 19.7656C88.112 19.5469 88.3203 19.1823 88.5859 18.6719L90.5547 18.9766ZM89.9297 26.6406V25.6172H83.6094V26.6406H89.9297ZM91.0938 31.0938V29.8906H83.6094V31.0938H91.0938ZM100.57 29.1719C99.3984 29.6354 97.7552 30.125 95.6406 30.6406L95.1953 28.8672L97.1094 28.4141V25.1562H95.6094V23.5391H97.1094V21.0234H95.6094V19.4141H100.586V21.0234H99.1562V23.5391H100.453V25.1562H99.1562V27.8516C99.776 27.6641 100.279 27.4948 100.664 27.3438L100.742 28.0547H104.297V26.9297H100.938V18.9766H109.812V26.9297H106.484V28.0547H110.008V29.7344H106.484V30.9141H110.508V32.6406H100.055V30.9141H104.297V29.7344H100.57V29.1719ZM106.484 22.1641H107.703V20.6406H106.484V22.1641ZM103.031 22.1641H104.297V20.6406H103.031V22.1641ZM104.297 23.6484H103.031V25.25H104.297V23.6484ZM107.703 23.6484H106.484V25.25H107.703V23.6484ZM123.883 22.3828H126.648V24.4297H123.883V25.875C123.883 28.0833 123.096 29.7786 121.523 30.9609C119.951 32.1432 117.654 32.763 114.633 32.8203L114.297 30.7656C117.026 30.6719 118.919 30.1901 119.977 29.3203C121.034 28.4453 121.562 27.2969 121.562 25.875V24.4297H116.742V28.2266H114.391V24.4297H111.547V22.3828H114.391V19.1562H116.742V22.3828H121.562V18.9297H123.883V22.3828ZM137.125 32.75H134.727V25.6641C132.784 26.6589 130.62 27.4427 128.234 28.0156L127.516 25.9688C130.266 25.3125 132.656 24.3464 134.688 23.0703C136.719 21.7943 138.258 20.3281 139.305 18.6719L141.578 19.5391C140.776 20.7422 140.031 21.6771 139.344 22.3438C138.656 23.0104 137.917 23.6198 137.125 24.1719V32.75ZM158.203 26.8984L156.727 28.75C154.508 27.2448 152.208 26.0833 149.828 25.2656V32.8828H147.367V18.7891H149.852V22.9609C152.487 23.8099 155.271 25.1224 158.203 26.8984Z" fill="#F39800"/>
  </svg>
  